<svg width="598" height="470" viewBox="0 0 598 470" fill="none" xmlns="http://www.w3.org/2000/svg">
<path d="M184.1 469.7C146.767 469.7 114.1 459.433 86.1 438.9C58.5667 418.367 37.3333 389.2 22.4 351.4C7.46667 313.6 0 269.033 0 217.7C0 187.833 4.9 155.867 14.7 121.8C24.9667 87.7333 39.4333 59.0333 58.1 35.7C77.2333 11.9 99.4 0 124.6 0C145.133 0 162.167 7.46666 175.7 22.4C189.233 37.3333 196 55.7666 196 77.7C196 84.2333 194.367 93.1 191.1 104.3C188.3 115.033 185.033 126.233 181.3 137.9C174.3 157.967 168.933 175.7 165.2 191.1C161.467 206.033 159.6 220.5 159.6 234.5C159.6 255.033 162.633 269.967 168.7 279.3C174.767 288.633 182.233 293.3 191.1 293.3C202.767 293.3 210.933 287.467 215.6 275.8C220.733 263.667 223.3 241.5 223.3 209.3L222.6 161C222.6 123.667 227.5 94.0333 237.3 72.1C247.1 49.7 266.7 38.5 296.1 38.5C318.033 38.5 334.6 44.5666 345.8 56.7C357 68.8333 364.233 84.2333 367.5 102.9C370.767 121.1 372.4 143.267 372.4 169.4V205.1C372.4 239.167 375.2 263.433 380.8 277.9C386.867 291.9 396.433 298.9 409.5 298.9C418.367 298.9 425.133 294.467 429.8 285.6C434.933 276.267 437.5 262.5 437.5 244.3C437.5 230.767 435.867 217.233 432.6 203.7C429.333 190.167 424.2 172.9 417.2 151.9C411.133 131.833 406.7 116.9 403.9 107.1C401.567 96.8333 400.4 87.0333 400.4 77.7C400.4 55.7666 407.4 37.5666 421.4 23.1C435.867 8.63332 452.667 1.39998 471.8 1.39998C499.333 1.39998 522.433 13.0666 541.1 36.4C560.233 59.2666 574.467 87.5 583.8 121.1C593.133 154.7 597.8 186.9 597.8 217.7C597.8 269.033 590.333 313.6 575.4 351.4C560.467 389.2 539 418.367 511 438.9C483.467 458.967 451.033 469 413.7 469C393.167 469 373.1 464.333 353.5 455C333.9 445.667 315.7 431.667 298.9 413C282.1 431.667 263.667 445.9 243.6 455.7C224 465.033 204.167 469.7 184.1 469.7Z" fill="white"/>
</svg>
